<svg class="rich-terminal" viewBox="0 0 1238 928.4" xmlns="http://www.w3.org/2000/svg">
    <!-- Generated with Rich https://www.textualize.io -->
    <style>

    @font-face {
        font-family: "Fira Code";
        src: local("FiraCode-Regular"),
                url("https://cdnjs.cloudflare.com/ajax/libs/firacode/6.2.0/woff2/FiraCode-Regular.woff2") format("woff2"),
                url("https://cdnjs.cloudflare.com/ajax/libs/firacode/6.2.0/woff/FiraCode-Regular.woff") format("woff");
        font-style: normal;
        font-weight: 400;
    }
    @font-face {
        font-family: "Fira Code";
        src: local("FiraCode-Bold"),
                url("https://cdnjs.cloudflare.com/ajax/libs/firacode/6.2.0/woff2/FiraCode-Bold.woff2") format("woff2"),
                url("https://cdnjs.cloudflare.com/ajax/libs/firacode/6.2.0/woff/FiraCode-Bold.woff") format("woff");
        font-style: bold;
        font-weight: 700;
    }

    .terminal-4242046734-matrix {
        font-family: Fira Code, monospace;
        font-size: 20px;
        line-height: 24.4px;
        font-variant-east-asian: full-width;
    }

    .terminal-4242046734-title {
        font-size: 18px;
        font-weight: bold;
        font-family: arial;
    }

    .terminal-4242046734-r1 { fill: #c5c8c6 }
.terminal-4242046734-r2 { fill: #7d7d87 }
.terminal-4242046734-r3 { fill: #0a1920;font-weight: bold }
.terminal-4242046734-r4 { fill: #1a1a2e }
.terminal-4242046734-r5 { fill: #0f1b38 }
.terminal-4242046734-r6 { fill: #27304f }
.terminal-4242046734-r7 { fill: #e0e0e0 }
.terminal-4242046734-r8 { fill: #6e7587 }
.terminal-4242046734-r9 { fill: #a3a3ab }
.terminal-4242046734-r10 { fill: #ffb74d;font-weight: bold }
.terminal-4242046734-r11 { fill: #45526b }
    </style>

    <defs>
    <clipPath id="terminal-4242046734-clip-terminal">
      <rect x="0" y="0" width="1219.0" height="877.4" />
    </clipPath>
    <clipPath id="terminal-4242046734-line-0">
    <rect x="0" y="1.5" width="1220" height="24.65"/>
            </clipPath>
<clipPath id="terminal-4242046734-line-1">
    <rect x="0" y="25.9" width="1220" height="24.65"/>
            </clipPath>
<clipPath id="terminal-4242046734-line-2">
    <rect x="0" y="50.3" width="1220" height="24.65"/>
            </clipPath>
<clipPath id="terminal-4242046734-line-3">
    <rect x="0" y="74.7" width="1220" height="24.65"/>
            </clipPath>
<clipPath id="terminal-4242046734-line-4">
    <rect x="0" y="99.1" width="1220" height="24.65"/>
            </clipPath>
<clipPath id="terminal-4242046734-line-5">
    <rect x="0" y="123.5" width="1220" height="24.65"/>
            </clipPath>
<clipPath id="terminal-4242046734-line-6">
    <rect x="0" y="147.9" width="1220" height="24.65"/>
            </clipPath>
<clipPath id="terminal-4242046734-line-7">
    <rect x="0" y="172.3" width="1220" height="24.65"/>
            </clipPath>
<clipPath id="terminal-4242046734-line-8">
    <rect x="0" y="196.7" width="1220" height="24.65"/>
            </clipPath>
<clipPath id="terminal-4242046734-line-9">
    <rect x="0" y="221.1" width="1220" height="24.65"/>
            </clipPath>
<clipPath id="terminal-4242046734-line-10">
    <rect x="0" y="245.5" width="1220" height="24.65"/>
            </clipPath>
<clipPath id="terminal-4242046734-line-11">
    <rect x="0" y="269.9" width="1220" height="24.65"/>
            </clipPath>
<clipPath id="terminal-4242046734-line-12">
    <rect x="0" y="294.3" width="1220" height="24.65"/>
            </clipPath>
<clipPath id="terminal-4242046734-line-13">
    <rect x="0" y="318.7" width="1220" height="24.65"/>
            </clipPath>
<clipPath id="terminal-4242046734-line-14">
    <rect x="0" y="343.1" width="1220" height="24.65"/>
            </clipPath>
<clipPath id="terminal-4242046734-line-15">
    <rect x="0" y="367.5" width="1220" height="24.65"/>
            </clipPath>
<clipPath id="terminal-4242046734-line-16">
    <rect x="0" y="391.9" width="1220" height="24.65"/>
            </clipPath>
<clipPath id="terminal-4242046734-line-17">
    <rect x="0" y="416.3" width="1220" height="24.65"/>
            </clipPath>
<clipPath id="terminal-4242046734-line-18">
    <rect x="0" y="440.7" width="1220" height="24.65"/>
            </clipPath>
<clipPath id="terminal-4242046734-line-19">
    <rect x="0" y="465.1" width="1220" height="24.65"/>
            </clipPath>
<clipPath id="terminal-4242046734-line-20">
    <rect x="0" y="489.5" width="1220" height="24.65"/>
            </clipPath>
<clipPath id="terminal-4242046734-line-21">
    <rect x="0" y="513.9" width="1220" height="24.65"/>
            </clipPath>
<clipPath id="terminal-4242046734-line-22">
    <rect x="0" y="538.3" width="1220" height="24.65"/>
            </clipPath>
<clipPath id="terminal-4242046734-line-23">
    <rect x="0" y="562.7" width="1220" height="24.65"/>
            </clipPath>
<clipPath id="terminal-4242046734-line-24">
    <rect x="0" y="587.1" width="1220" height="24.65"/>
            </clipPath>
<clipPath id="terminal-4242046734-line-25">
    <rect x="0" y="611.5" width="1220" height="24.65"/>
            </clipPath>
<clipPath id="terminal-4242046734-line-26">
    <rect x="0" y="635.9" width="1220" height="24.65"/>
            </clipPath>
<clipPath id="terminal-4242046734-line-27">
    <rect x="0" y="660.3" width="1220" height="24.65"/>
            </clipPath>
<clipPath id="terminal-4242046734-line-28">
    <rect x="0" y="684.7" width="1220" height="24.65"/>
            </clipPath>
<clipPath id="terminal-4242046734-line-29">
    <rect x="0" y="709.1" width="1220" height="24.65"/>
            </clipPath>
<clipPath id="terminal-4242046734-line-30">
    <rect x="0" y="733.5" width="1220" height="24.65"/>
            </clipPath>
<clipPath id="terminal-4242046734-line-31">
    <rect x="0" y="757.9" width="1220" height="24.65"/>
            </clipPath>
<clipPath id="terminal-4242046734-line-32">
    <rect x="0" y="782.3" width="1220" height="24.65"/>
            </clipPath>
<clipPath id="terminal-4242046734-line-33">
    <rect x="0" y="806.7" width="1220" height="24.65"/>
            </clipPath>
<clipPath id="terminal-4242046734-line-34">
    <rect x="0" y="831.1" width="1220" height="24.65"/>
            </clipPath>
    </defs>

    <rect fill="#292929" stroke="rgba(255,255,255,0.35)" stroke-width="1" x="1" y="1" width="1236" height="926.4" rx="8"/><text class="terminal-4242046734-title" fill="#c5c8c6" text-anchor="middle" x="618" y="27">ws-accounting</text>
            <g transform="translate(26,22)">
            <circle cx="0" cy="0" r="7" fill="#ff5f57"/>
            <circle cx="22" cy="0" r="7" fill="#febc2e"/>
            <circle cx="44" cy="0" r="7" fill="#28c840"/>
            </g>
        
    <g transform="translate(9, 41)" clip-path="url(#terminal-4242046734-clip-terminal)">
    <rect fill="#1a1a2e" x="0" y="1.5" width="12.2" height="24.65" shape-rendering="crispEdges"/><rect fill="#1a1a2e" x="12.2" y="1.5" width="109.8" height="24.65" shape-rendering="crispEdges"/><rect fill="#1a1a2e" x="122" y="1.5" width="12.2" height="24.65" shape-rendering="crispEdges"/><rect fill="#4fc3f7" x="134.2" y="1.5" width="12.2" height="24.65" shape-rendering="crispEdges"/><rect fill="#4fc3f7" x="146.4" y="1.5" width="61" height="24.65" shape-rendering="crispEdges"/><rect fill="#4fc3f7" x="207.4" y="1.5" width="12.2" height="24.65" shape-rendering="crispEdges"/><rect fill="#1a1a2e" x="219.6" y="1.5" width="12.2" height="24.65" shape-rendering="crispEdges"/><rect fill="#1a1a2e" x="231.8" y="1.5" width="73.2" height="24.65" shape-rendering="crispEdges"/><rect fill="#1a1a2e" x="305" y="1.5" width="12.2" height="24.65" shape-rendering="crispEdges"/><rect fill="#1a1a2e" x="317.2" y="1.5" width="12.2" height="24.65" shape-rendering="crispEdges"/><rect fill="#1a1a2e" x="329.4" y="1.5" width="73.2" height="24.65" shape-rendering="crispEdges"/><rect fill="#1a1a2e" x="402.6" y="1.5" width="12.2" height="24.65" shape-rendering="crispEdges"/><rect fill="#1a1a2e" x="414.8" y="1.5" width="12.2" height="24.65" shape-rendering="crispEdges"/><rect fill="#1a1a2e" x="427" y="1.5" width="85.4" height="24.65" shape-rendering="crispEdges"/><rect fill="#1a1a2e" x="512.4" y="1.5" width="12.2" height="24.65" shape-rendering="crispEdges"/><rect fill="#1a1a2e" x="524.6" y="1.5" width="12.2" height="24.65" shape-rendering="crispEdges"/><rect fill="#1a1a2e" x="536.8" y="1.5" width="24.4" height="24.65" shape-rendering="crispEdges"/><rect fill="#1a1a2e" x="561.2" y="1.5" width="12.2" height="24.65" shape-rendering="crispEdges"/><rect fill="#1a1a2e" x="573.4" y="1.5" width="12.2" height="24.65" shape-rendering="crispEdges"/><rect fill="#1a1a2e" x="585.6" y="1.5" width="61" height="24.65" shape-rendering="crispEdges"/><rect fill="#1a1a2e" x="646.6" y="1.5" width="12.2" height="24.65" shape-rendering="crispEdges"/><rect fill="#1a1a2e" x="658.8" y="1.5" width="12.2" height="24.65" shape-rendering="crispEdges"/><rect fill="#1a1a2e" x="671" y="1.5" width="12.2" height="24.65" shape-rendering="crispEdges"/><rect fill="#1a1a2e" x="683.2" y="1.5" width="12.2" height="24.65" shape-rendering="crispEdges"/><rect fill="#1a1a2e" x="695.4" y="1.5" width="524.6" height="24.65" shape-rendering="crispEdges"/><rect fill="#1a1a2e" x="0" y="25.9" width="12.2" height="24.65" shape-rendering="crispEdges"/><rect fill="#0f1b38" x="12.2" y="25.9" width="12.2" height="24.65" shape-rendering="crispEdges"/><rect fill="#16213e" x="24.4" y="25.9" width="48.8" height="24.65" shape-rendering="crispEdges"/><rect fill="#1a1a2e" x="73.2" y="25.9" width="12.2" height="24.65" shape-rendering="crispEdges"/><rect fill="#1a1a2e" x="85.4" y="25.9" width="12.2" height="24.65" shape-rendering="crispEdges"/><rect fill="#16213e" x="97.6" y="25.9" width="36.6" height="24.65" shape-rendering="crispEdges"/><rect fill="#1a1a2e" x="134.2" y="25.9" width="12.2" height="24.65" shape-rendering="crispEdges"/><rect fill="#1a1a2e" x="146.4" y="25.9" width="12.2" height="24.65" shape-rendering="crispEdges"/><rect fill="#1a1a2e" x="158.6" y="25.9" width="97.6" height="24.65" shape-rendering="crispEdges"/><rect fill="#1a1a2e" x="256.2" y="25.9" width="12.2" height="24.65" shape-rendering="crispEdges"/><rect fill="#1a1a2e" x="268.4" y="25.9" width="12.2" height="24.65" shape-rendering="crispEdges"/><rect fill="#16213e" x="280.6" y="25.9" width="36.6" height="24.65" shape-rendering="crispEdges"/><rect fill="#1a1a2e" x="317.2" y="25.9" width="890.6" height="24.65" shape-rendering="crispEdges"/><rect fill="#1a1a2e" x="1207.8" y="25.9" width="12.2" height="24.65" shape-rendering="crispEdges"/><rect fill="#1a1a2e" x="0" y="50.3" width="12.2" height="24.65" shape-rendering="crispEdges"/><rect fill="#0f1b38" x="12.2" y="50.3" width="12.2" height="24.65" shape-rendering="crispEdges"/><rect fill="#16213e" x="24.4" y="50.3" width="24.4" height="24.65" shape-rendering="crispEdges"/><rect fill="#16213e" x="48.8" y="50.3" width="0" height="24.65" shape-rendering="crispEdges"/><rect fill="#16213e" x="48.8" y="50.3" width="24.4" height="24.65" shape-rendering="crispEdges"/><rect fill="#1a1a2e" x="73.2" y="50.3" width="12.2" height="24.65" shape-rendering="crispEdges"/><rect fill="#1a1a2e" x="85.4" y="50.3" width="1122.4" height="24.65" shape-rendering="crispEdges"/><rect fill="#1a1a2e" x="1207.8" y="50.3" width="12.2" height="24.65" shape-rendering="crispEdges"/><rect fill="#1a1a2e" x="0" y="74.7" width="12.2" height="24.65" shape-rendering="crispEdges"/><rect fill="#0f1b38" x="12.2" y="74.7" width="12.2" height="24.65" shape-rendering="crispEdges"/><rect fill="#16213e" x="24.4" y="74.7" width="48.8" height="24.65" shape-rendering="crispEdges"/><rect fill="#1a1a2e" x="73.2" y="74.7" width="12.2" height="24.65" shape-rendering="crispEdges"/><rect fill="#1a1a2e" x="85.4" y="74.7" width="1122.4" height="24.65" shape-rendering="crispEdges"/><rect fill="#1a1a2e" x="1207.8" y="74.7" width="12.2" height="24.65" shape-rendering="crispEdges"/><rect fill="#1a1a2e" x="0" y="99.1" width="1220" height="24.65" shape-rendering="crispEdges"/><rect fill="#1a1a2e" x="0" y="123.5" width="12.2" height="24.65" shape-rendering="crispEdges"/><rect fill="#1a1a2e" x="12.2" y="123.5" width="1195.6" height="24.65" shape-rendering="crispEdges"/><rect fill="#1a1a2e" x="1207.8" y="123.5" width="12.2" height="24.65" shape-rendering="crispEdges"/><rect fill="#1a1a2e" x="0" y="147.9" width="12.2" height="24.65" shape-rendering="crispEdges"/><rect fill="#1a1a2e" x="12.2" y="147.9" width="1195.6" height="24.65" shape-rendering="crispEdges"/><rect fill="#1a1a2e" x="1207.8" y="147.9" width="12.2" height="24.65" shape-rendering="crispEdges"/><rect fill="#1a1a2e" x="0" y="172.3" width="12.2" height="24.65" shape-rendering="crispEdges"/><rect fill="#1a1a2e" x="12.2" y="172.3" width="1195.6" height="24.65" shape-rendering="crispEdges"/><rect fill="#1a1a2e" x="1207.8" y="172.3" width="12.2" height="24.65" shape-rendering="crispEdges"/><rect fill="#1a1a2e" x="0" y="196.7" width="12.2" height="24.65" shape-rendering="crispEdges"/><rect fill="#1a1a2e" x="12.2" y="196.7" width="1195.6" height="24.65" shape-rendering="crispEdges"/><rect fill="#1a1a2e" x="1207.8" y="196.7" width="12.2" height="24.65" shape-rendering="crispEdges"/><rect fill="#1a1a2e" x="0" y="221.1" width="12.2" height="24.65" shape-rendering="crispEdges"/><rect fill="#1a1a2e" x="12.2" y="221.1" width="97.6" height="24.65" shape-rendering="crispEdges"/><rect fill="#1a1a2e" x="109.8" y="221.1" width="244" height="24.65" shape-rendering="crispEdges"/><rect fill="#1a1a2e" x="353.8" y="221.1" width="512.4" height="24.65" shape-rendering="crispEdges"/><rect fill="#1a1a2e" x="866.2" y="221.1" width="244" height="24.65" shape-rendering="crispEdges"/><rect fill="#1a1a2e" x="1110.2" y="221.1" width="97.6" height="24.65" shape-rendering="crispEdges"/><rect fill="#1a1a2e" x="1207.8" y="221.1" width="12.2" height="24.65" shape-rendering="crispEdges"/><rect fill="#1a1a2e" x="0" y="245.5" width="12.2" height="24.65" shape-rendering="crispEdges"/><rect fill="#1a1a2e" x="12.2" y="245.5" width="97.6" height="24.65" shape-rendering="crispEdges"/><rect fill="#1a1a2e" x="109.8" y="245.5" width="1000.4" height="24.65" shape-rendering="crispEdges"/><rect fill="#1a1a2e" x="1110.2" y="245.5" width="97.6" height="24.65" shape-rendering="crispEdges"/><rect fill="#1a1a2e" x="1207.8" y="245.5" width="12.2" height="24.65" shape-rendering="crispEdges"/><rect fill="#1a1a2e" x="0" y="269.9" width="12.2" height="24.65" shape-rendering="crispEdges"/><rect fill="#1a1a2e" x="12.2" y="269.9" width="97.6" height="24.65" shape-rendering="crispEdges"/><rect fill="#1a1a2e" x="109.8" y="269.9" width="1000.4" height="24.65" shape-rendering="crispEdges"/><rect fill="#1a1a2e" x="1110.2" y="269.9" width="97.6" height="24.65" shape-rendering="crispEdges"/><rect fill="#1a1a2e" x="1207.8" y="269.9" width="12.2" height="24.65" shape-rendering="crispEdges"/><rect fill="#1a1a2e" x="0" y="294.3" width="12.2" height="24.65" shape-rendering="crispEdges"/><rect fill="#1a1a2e" x="12.2" y="294.3" width="97.6" height="24.65" shape-rendering="crispEdges"/><rect fill="#1a1a2e" x="109.8" y="294.3" width="1000.4" height="24.65" shape-rendering="crispEdges"/><rect fill="#1a1a2e" x="1110.2" y="294.3" width="97.6" height="24.65" shape-rendering="crispEdges"/><rect fill="#1a1a2e" x="1207.8" y="294.3" width="12.2" height="24.65" shape-rendering="crispEdges"/><rect fill="#1a1a2e" x="0" y="318.7" width="12.2" height="24.65" shape-rendering="crispEdges"/><rect fill="#1a1a2e" x="12.2" y="318.7" width="97.6" height="24.65" shape-rendering="crispEdges"/><rect fill="#1a1a2e" x="109.8" y="318.7" width="1000.4" height="24.65" shape-rendering="crispEdges"/><rect fill="#1a1a2e" x="1110.2" y="318.7" width="97.6" height="24.65" shape-rendering="crispEdges"/><rect fill="#1a1a2e" x="1207.8" y="318.7" width="12.2" height="24.65" shape-rendering="crispEdges"/><rect fill="#1a1a2e" x="0" y="343.1" width="12.2" height="24.65" shape-rendering="crispEdges"/><rect fill="#1a1a2e" x="12.2" y="343.1" width="97.6" height="24.65" shape-rendering="crispEdges"/><rect fill="#1a1a2e" x="109.8" y="343.1" width="1000.4" height="24.65" shape-rendering="crispEdges"/><rect fill="#1a1a2e" x="1110.2" y="343.1" width="97.6" height="24.65" shape-rendering="crispEdges"/><rect fill="#1a1a2e" x="1207.8" y="343.1" width="12.2" height="24.65" shape-rendering="crispEdges"/><rect fill="#1a1a2e" x="0" y="367.5" width="12.2" height="24.65" shape-rendering="crispEdges"/><rect fill="#1a1a2e" x="12.2" y="367.5" width="97.6" height="24.65" shape-rendering="crispEdges"/><rect fill="#1a1a2e" x="109.8" y="367.5" width="1000.4" height="24.65" shape-rendering="crispEdges"/><rect fill="#1a1a2e" x="1110.2" y="367.5" width="97.6" height="24.65" shape-rendering="crispEdges"/><rect fill="#1a1a2e" x="1207.8" y="367.5" width="12.2" height="24.65" shape-rendering="crispEdges"/><rect fill="#1a1a2e" x="0" y="391.9" width="12.2" height="24.65" shape-rendering="crispEdges"/><rect fill="#1a1a2e" x="12.2" y="391.9" width="97.6" height="24.65" shape-rendering="crispEdges"/><rect fill="#1a1a2e" x="109.8" y="391.9" width="1000.4" height="24.65" shape-rendering="crispEdges"/><rect fill="#1a1a2e" x="1110.2" y="391.9" width="97.6" height="24.65" shape-rendering="crispEdges"/><rect fill="#1a1a2e" x="1207.8" y="391.9" width="12.2" height="24.65" shape-rendering="crispEdges"/><rect fill="#1a1a2e" x="0" y="416.3" width="12.2" height="24.65" shape-rendering="crispEdges"/><rect fill="#1a1a2e" x="12.2" y="416.3" width="97.6" height="24.65" shape-rendering="crispEdges"/><rect fill="#1a1a2e" x="109.8" y="416.3" width="1000.4" height="24.65" shape-rendering="crispEdges"/><rect fill="#1a1a2e" x="1110.2" y="416.3" width="97.6" height="24.65" shape-rendering="crispEdges"/><rect fill="#1a1a2e" x="1207.8" y="416.3" width="12.2" height="24.65" shape-rendering="crispEdges"/><rect fill="#1a1a2e" x="0" y="440.7" width="12.2" height="24.65" shape-rendering="crispEdges"/><rect fill="#1a1a2e" x="12.2" y="440.7" width="97.6" height="24.65" shape-rendering="crispEdges"/><rect fill="#1a1a2e" x="109.8" y="440.7" width="1000.4" height="24.65" shape-rendering="crispEdges"/><rect fill="#1a1a2e" x="1110.2" y="440.7" width="97.6" height="24.65" shape-rendering="crispEdges"/><rect fill="#1a1a2e" x="1207.8" y="440.7" width="12.2" height="24.65" shape-rendering="crispEdges"/><rect fill="#1a1a2e" x="0" y="465.1" width="12.2" height="24.65" shape-rendering="crispEdges"/><rect fill="#1a1a2e" x="12.2" y="465.1" width="97.6" height="24.65" shape-rendering="crispEdges"/><rect fill="#1a1a2e" x="109.8" y="465.1" width="1000.4" height="24.65" shape-rendering="crispEdges"/><rect fill="#1a1a2e" x="1110.2" y="465.1" width="97.6" height="24.65" shape-rendering="crispEdges"/><rect fill="#1a1a2e" x="1207.8" y="465.1" width="12.2" height="24.65" shape-rendering="crispEdges"/><rect fill="#1a1a2e" x="0" y="489.5" width="12.2" height="24.65" shape-rendering="crispEdges"/><rect fill="#1a1a2e" x="12.2" y="489.5" width="97.6" height="24.65" shape-rendering="crispEdges"/><rect fill="#1a1a2e" x="109.8" y="489.5" width="1000.4" height="24.65" shape-rendering="crispEdges"/><rect fill="#1a1a2e" x="1110.2" y="489.5" width="97.6" height="24.65" shape-rendering="crispEdges"/><rect fill="#1a1a2e" x="1207.8" y="489.5" width="12.2" height="24.65" shape-rendering="crispEdges"/><rect fill="#1a1a2e" x="0" y="513.9" width="12.2" height="24.65" shape-rendering="crispEdges"/><rect fill="#1a1a2e" x="12.2" y="513.9" width="97.6" height="24.65" shape-rendering="crispEdges"/><rect fill="#1a1a2e" x="109.8" y="513.9" width="1000.4" height="24.65" shape-rendering="crispEdges"/><rect fill="#1a1a2e" x="1110.2" y="513.9" width="97.6" height="24.65" shape-rendering="crispEdges"/><rect fill="#1a1a2e" x="1207.8" y="513.9" width="12.2" height="24.65" shape-rendering="crispEdges"/><rect fill="#1a1a2e" x="0" y="538.3" width="12.2" height="24.65" shape-rendering="crispEdges"/><rect fill="#1a1a2e" x="12.2" y="538.3" width="97.6" height="24.65" shape-rendering="crispEdges"/><rect fill="#1a1a2e" x="109.8" y="538.3" width="1000.4" height="24.65" shape-rendering="crispEdges"/><rect fill="#1a1a2e" x="1110.2" y="538.3" width="97.6" height="24.65" shape-rendering="crispEdges"/><rect fill="#1a1a2e" x="1207.8" y="538.3" width="12.2" height="24.65" shape-rendering="crispEdges"/><rect fill="#1a1a2e" x="0" y="562.7" width="12.2" height="24.65" shape-rendering="crispEdges"/><rect fill="#1a1a2e" x="12.2" y="562.7" width="97.6" height="24.65" shape-rendering="crispEdges"/><rect fill="#1a1a2e" x="109.8" y="562.7" width="1000.4" height="24.65" shape-rendering="crispEdges"/><rect fill="#1a1a2e" x="1110.2" y="562.7" width="97.6" height="24.65" shape-rendering="crispEdges"/><rect fill="#1a1a2e" x="1207.8" y="562.7" width="12.2" height="24.65" shape-rendering="crispEdges"/><rect fill="#1a1a2e" x="0" y="587.1" width="12.2" height="24.65" shape-rendering="crispEdges"/><rect fill="#1a1a2e" x="12.2" y="587.1" width="97.6" height="24.65" shape-rendering="crispEdges"/><rect fill="#1a1a2e" x="109.8" y="587.1" width="1000.4" height="24.65" shape-rendering="crispEdges"/><rect fill="#1a1a2e" x="1110.2" y="587.1" width="97.6" height="24.65" shape-rendering="crispEdges"/><rect fill="#1a1a2e" x="1207.8" y="587.1" width="12.2" height="24.65" shape-rendering="crispEdges"/><rect fill="#1a1a2e" x="0" y="611.5" width="12.2" height="24.65" shape-rendering="crispEdges"/><rect fill="#1a1a2e" x="12.2" y="611.5" width="97.6" height="24.65" shape-rendering="crispEdges"/><rect fill="#1a1a2e" x="109.8" y="611.5" width="1000.4" height="24.65" shape-rendering="crispEdges"/><rect fill="#1a1a2e" x="1110.2" y="611.5" width="97.6" height="24.65" shape-rendering="crispEdges"/><rect fill="#1a1a2e" x="1207.8" y="611.5" width="12.2" height="24.65" shape-rendering="crispEdges"/><rect fill="#1a1a2e" x="0" y="635.9" width="12.2" height="24.65" shape-rendering="crispEdges"/><rect fill="#1a1a2e" x="12.2" y="635.9" width="97.6" height="24.65" shape-rendering="crispEdges"/><rect fill="#1a1a2e" x="109.8" y="635.9" width="1000.4" height="24.65" shape-rendering="crispEdges"/><rect fill="#1a1a2e" x="1110.2" y="635.9" width="97.6" height="24.65" shape-rendering="crispEdges"/><rect fill="#1a1a2e" x="1207.8" y="635.9" width="12.2" height="24.65" shape-rendering="crispEdges"/><rect fill="#1a1a2e" x="0" y="660.3" width="12.2" height="24.65" shape-rendering="crispEdges"/><rect fill="#1a1a2e" x="12.2" y="660.3" width="1195.6" height="24.65" shape-rendering="crispEdges"/><rect fill="#1a1a2e" x="1207.8" y="660.3" width="12.2" height="24.65" shape-rendering="crispEdges"/><rect fill="#1a1a2e" x="0" y="684.7" width="12.2" height="24.65" shape-rendering="crispEdges"/><rect fill="#1a1a2e" x="12.2" y="684.7" width="1195.6" height="24.65" shape-rendering="crispEdges"/><rect fill="#1a1a2e" x="1207.8" y="684.7" width="12.2" height="24.65" shape-rendering="crispEdges"/><rect fill="#1a1a2e" x="0" y="709.1" width="12.2" height="24.65" shape-rendering="crispEdges"/><rect fill="#1a1a2e" x="12.2" y="709.1" width="1195.6" height="24.65" shape-rendering="crispEdges"/><rect fill="#1a1a2e" x="1207.8" y="709.1" width="12.2" height="24.65" shape-rendering="crispEdges"/><rect fill="#1a1a2e" x="0" y="733.5" width="12.2" height="24.65" shape-rendering="crispEdges"/><rect fill="#1a1a2e" x="12.2" y="733.5" width="1195.6" height="24.65" shape-rendering="crispEdges"/><rect fill="#1a1a2e" x="1207.8" y="733.5" width="12.2" height="24.65" shape-rendering="crispEdges"/><rect fill="#1a1a2e" x="0" y="757.9" width="1220" height="24.65" shape-rendering="crispEdges"/><rect fill="#1a1a2e" x="0" y="782.3" width="12.2" height="24.65" shape-rendering="crispEdges"/><rect fill="#0f1b38" x="12.2" y="782.3" width="12.2" height="24.65" shape-rendering="crispEdges"/><rect fill="#16213e" x="24.4" y="782.3" width="1159" height="24.65" shape-rendering="crispEdges"/><rect fill="#1a1a2e" x="1183.4" y="782.3" width="12.2" height="24.65" shape-rendering="crispEdges"/><rect fill="#1a1a2e" x="1195.6" y="782.3" width="12.2" height="24.65" shape-rendering="crispEdges"/><rect fill="#1a1a2e" x="1207.8" y="782.3" width="12.2" height="24.65" shape-rendering="crispEdges"/><rect fill="#1a1a2e" x="0" y="806.7" width="12.2" height="24.65" shape-rendering="crispEdges"/><rect fill="#0f1b38" x="12.2" y="806.7" width="12.2" height="24.65" shape-rendering="crispEdges"/><rect fill="#16213e" x="24.4" y="806.7" width="24.4" height="24.65" shape-rendering="crispEdges"/><rect fill="#16213e" x="48.8" y="806.7" width="963.8" height="24.65" shape-rendering="crispEdges"/><rect fill="#16213e" x="1012.6" y="806.7" width="146.4" height="24.65" shape-rendering="crispEdges"/><rect fill="#16213e" x="1159" y="806.7" width="24.4" height="24.65" shape-rendering="crispEdges"/><rect fill="#1a1a2e" x="1183.4" y="806.7" width="12.2" height="24.65" shape-rendering="crispEdges"/><rect fill="#1a1a2e" x="1195.6" y="806.7" width="12.2" height="24.65" shape-rendering="crispEdges"/><rect fill="#1a1a2e" x="1207.8" y="806.7" width="12.2" height="24.65" shape-rendering="crispEdges"/><rect fill="#1a1a2e" x="0" y="831.1" width="12.2" height="24.65" shape-rendering="crispEdges"/><rect fill="#0f1b38" x="12.2" y="831.1" width="12.2" height="24.65" shape-rendering="crispEdges"/><rect fill="#16213e" x="24.4" y="831.1" width="1159" height="24.65" shape-rendering="crispEdges"/><rect fill="#1a1a2e" x="1183.4" y="831.1" width="12.2" height="24.65" shape-rendering="crispEdges"/><rect fill="#1a1a2e" x="1195.6" y="831.1" width="12.2" height="24.65" shape-rendering="crispEdges"/><rect fill="#1a1a2e" x="1207.8" y="831.1" width="12.2" height="24.65" shape-rendering="crispEdges"/><rect fill="#1f2f4e" x="0" y="855.5" width="36.6" height="24.65" shape-rendering="crispEdges"/><rect fill="#1f2f4e" x="36.6" y="855.5" width="85.4" height="24.65" shape-rendering="crispEdges"/><rect fill="#1f2f4e" x="122" y="855.5" width="36.6" height="24.65" shape-rendering="crispEdges"/><rect fill="#1f2f4e" x="158.6" y="855.5" width="61" height="24.65" shape-rendering="crispEdges"/><rect fill="#1f2f4e" x="219.6" y="855.5" width="36.6" height="24.65" shape-rendering="crispEdges"/><rect fill="#1f2f4e" x="256.2" y="855.5" width="85.4" height="24.65" shape-rendering="crispEdges"/><rect fill="#1f2f4e" x="341.6" y="855.5" width="36.6" height="24.65" shape-rendering="crispEdges"/><rect fill="#1f2f4e" x="378.2" y="855.5" width="61" height="24.65" shape-rendering="crispEdges"/><rect fill="#1f2f4e" x="439.2" y="855.5" width="634.4" height="24.65" shape-rendering="crispEdges"/><rect fill="#1f2f4e" x="1073.6" y="855.5" width="12.2" height="24.65" shape-rendering="crispEdges"/><rect fill="#1f2f4e" x="1085.8" y="855.5" width="24.4" height="24.65" shape-rendering="crispEdges"/><rect fill="#1f2f4e" x="1110.2" y="855.5" width="97.6" height="24.65" shape-rendering="crispEdges"/><rect fill="#1f2f4e" x="1207.8" y="855.5" width="12.2" height="24.65" shape-rendering="crispEdges"/>
    <g class="terminal-4242046734-matrix">
    <text class="terminal-4242046734-r2" x="12.2" y="20" textLength="109.8" clip-path="url(#terminal-4242046734-line-0)">Dashboard</text><text class="terminal-4242046734-r3" x="146.4" y="20" textLength="61" clip-path="url(#terminal-4242046734-line-0)">Trans</text><text class="terminal-4242046734-r2" x="231.8" y="20" textLength="73.2" clip-path="url(#terminal-4242046734-line-0)">Import</text><text class="terminal-4242046734-r2" x="329.4" y="20" textLength="73.2" clip-path="url(#terminal-4242046734-line-0)">Budget</text><text class="terminal-4242046734-r2" x="427" y="20" textLength="85.4" clip-path="url(#terminal-4242046734-line-0)">Reports</text><text class="terminal-4242046734-r2" x="536.8" y="20" textLength="24.4" clip-path="url(#terminal-4242046734-line-0)">AI</text><text class="terminal-4242046734-r2" x="585.6" y="20" textLength="61" clip-path="url(#terminal-4242046734-line-0)">Accts</text><text class="terminal-4242046734-r2" x="671" y="20" textLength="12.2" clip-path="url(#terminal-4242046734-line-0)">⚙</text><text class="terminal-4242046734-r1" x="1220" y="20" textLength="12.2" clip-path="url(#terminal-4242046734-line-0)">
</text><text class="terminal-4242046734-r4" x="12.2" y="44.4" textLength="12.2" clip-path="url(#terminal-4242046734-line-1)">▊</text><text class="terminal-4242046734-r5" x="24.4" y="44.4" textLength="48.8" clip-path="url(#terminal-4242046734-line-1)">▔▔▔▔</text><text class="terminal-4242046734-r5" x="73.2" y="44.4" textLength="12.2" clip-path="url(#terminal-4242046734-line-1)">▎</text><text class="terminal-4242046734-r6" x="97.6" y="44.4" textLength="36.6" clip-path="url(#terminal-4242046734-line-1)">▔▔▔</text><text class="terminal-4242046734-r7" x="158.6" y="44.4" textLength="97.6" clip-path="url(#terminal-4242046734-line-1)">Feb&#160;2026</text><text class="terminal-4242046734-r6" x="280.6" y="44.4" textLength="36.6" clip-path="url(#terminal-4242046734-line-1)">▔▔▔</text><text class="terminal-4242046734-r1" x="1220" y="44.4" textLength="12.2" clip-path="url(#terminal-4242046734-line-1)">
</text><text class="terminal-4242046734-r4" x="12.2" y="68.8" textLength="12.2" clip-path="url(#terminal-4242046734-line-2)">▊</text><text class="terminal-4242046734-r5" x="73.2" y="68.8" textLength="12.2" clip-path="url(#terminal-4242046734-line-2)">▎</text><text class="terminal-4242046734-r1" x="1220" y="68.8" textLength="12.2" clip-path="url(#terminal-4242046734-line-2)">
</text><text class="terminal-4242046734-r4" x="12.2" y="93.2" textLength="12.2" clip-path="url(#terminal-4242046734-line-3)">▊</text><text class="terminal-4242046734-r5" x="24.4" y="93.2" textLength="48.8" clip-path="url(#terminal-4242046734-line-3)">▁▁▁▁</text><text class="terminal-4242046734-r5" x="73.2" y="93.2" textLength="12.2" clip-path="url(#terminal-4242046734-line-3)">▎</text><text class="terminal-4242046734-r1" x="1220" y="93.2" textLength="12.2" clip-path="url(#terminal-4242046734-line-3)">
</text><text class="terminal-4242046734-r1" x="1220" y="117.6" textLength="12.2" clip-path="url(#terminal-4242046734-line-4)">
</text><text class="terminal-4242046734-r1" x="1220" y="142" textLength="12.2" clip-path="url(#terminal-4242046734-line-5)">
</text><text class="terminal-4242046734-r1" x="1220" y="166.4" textLength="12.2" clip-path="url(#terminal-4242046734-line-6)">
</text><text class="terminal-4242046734-r1" x="1220" y="190.8" textLength="12.2" clip-path="url(#terminal-4242046734-line-7)">
</text><text class="terminal-4242046734-r1" x="1220" y="215.2" textLength="12.2" clip-path="url(#terminal-4242046734-line-8)">
</text><text class="terminal-4242046734-r9" x="353.8" y="239.6" textLength="512.4" clip-path="url(#terminal-4242046734-line-9)">No&#160;transactions&#160;match&#160;the&#160;current&#160;filters.</text><text class="terminal-4242046734-r1" x="1220" y="239.6" textLength="12.2" clip-path="url(#terminal-4242046734-line-9)">
</text><text class="terminal-4242046734-r1" x="1220" y="264" textLength="12.2" clip-path="url(#terminal-4242046734-line-10)">
</text><text class="terminal-4242046734-r1" x="1220" y="288.4" textLength="12.2" clip-path="url(#terminal-4242046734-line-11)">
</text><text class="terminal-4242046734-r1" x="1220" y="312.8" textLength="12.2" clip-path="url(#terminal-4242046734-line-12)">
</text><text class="terminal-4242046734-r1" x="1220" y="337.2" textLength="12.2" clip-path="url(#terminal-4242046734-line-13)">
</text><text class="terminal-4242046734-r1" x="1220" y="361.6" textLength="12.2" clip-path="url(#terminal-4242046734-line-14)">
</text><text class="terminal-4242046734-r1" x="1220" y="386" textLength="12.2" clip-path="url(#terminal-4242046734-line-15)">
</text><text class="terminal-4242046734-r1" x="1220" y="410.4" textLength="12.2" clip-path="url(#terminal-4242046734-line-16)">
</text><text class="terminal-4242046734-r1" x="1220" y="434.8" textLength="12.2" clip-path="url(#terminal-4242046734-line-17)">
</text><text class="terminal-4242046734-r1" x="1220" y="459.2" textLength="12.2" clip-path="url(#terminal-4242046734-line-18)">
</text><text class="terminal-4242046734-r1" x="1220" y="483.6" textLength="12.2" clip-path="url(#terminal-4242046734-line-19)">
</text><text class="terminal-4242046734-r1" x="1220" y="508" textLength="12.2" clip-path="url(#terminal-4242046734-line-20)">
</text><text class="terminal-4242046734-r1" x="1220" y="532.4" textLength="12.2" clip-path="url(#terminal-4242046734-line-21)">
</text><text class="terminal-4242046734-r1" x="1220" y="556.8" textLength="12.2" clip-path="url(#terminal-4242046734-line-22)">
</text><text class="terminal-4242046734-r1" x="1220" y="581.2" textLength="12.2" clip-path="url(#terminal-4242046734-line-23)">
</text><text class="terminal-4242046734-r1" x="1220" y="605.6" textLength="12.2" clip-path="url(#terminal-4242046734-line-24)">
</text><text class="terminal-4242046734-r1" x="1220" y="630" textLength="12.2" clip-path="url(#terminal-4242046734-line-25)">
</text><text class="terminal-4242046734-r1" x="1220" y="654.4" textLength="12.2" clip-path="url(#terminal-4242046734-line-26)">
</text><text class="terminal-4242046734-r1" x="1220" y="678.8" textLength="12.2" clip-path="url(#terminal-4242046734-line-27)">
</text><text class="terminal-4242046734-r1" x="1220" y="703.2" textLength="12.2" clip-path="url(#terminal-4242046734-line-28)">
</text><text class="terminal-4242046734-r1" x="1220" y="727.6" textLength="12.2" clip-path="url(#terminal-4242046734-line-29)">
</text><text class="terminal-4242046734-r1" x="1220" y="752" textLength="12.2" clip-path="url(#terminal-4242046734-line-30)">
</text><text class="terminal-4242046734-r1" x="1220" y="776.4" textLength="12.2" clip-path="url(#terminal-4242046734-line-31)">
</text><text class="terminal-4242046734-r4" x="12.2" y="800.8" textLength="12.2" clip-path="url(#terminal-4242046734-line-32)">▊</text><text class="terminal-4242046734-r5" x="24.4" y="800.8" textLength="1159" clip-path="url(#terminal-4242046734-line-32)">▔▔▔▔▔▔▔▔▔▔▔▔▔▔▔▔▔▔▔▔▔▔▔▔▔▔▔▔▔▔▔▔▔▔▔▔▔▔▔▔▔▔▔▔▔▔▔▔▔▔▔▔▔▔▔▔▔▔▔▔▔▔▔▔▔▔▔▔▔▔▔▔▔▔▔▔▔▔▔▔▔▔▔▔▔▔▔▔▔▔▔▔▔▔▔</text><text class="terminal-4242046734-r5" x="1183.4" y="800.8" textLength="12.2" clip-path="url(#terminal-4242046734-line-32)">▎</text><text class="terminal-4242046734-r1" x="1220" y="800.8" textLength="12.2" clip-path="url(#terminal-4242046734-line-32)">
</text><text class="terminal-4242046734-r4" x="12.2" y="825.2" textLength="12.2" clip-path="url(#terminal-4242046734-line-33)">▊</text><text class="terminal-4242046734-r8" x="48.8" y="825.2" textLength="963.8" clip-path="url(#terminal-4242046734-line-33)">Quick&#160;add:&#160;description&#160;amount&#160;category&#160;&#160;(e.g.&#160;coffee&#160;4.50&#160;expenses:food:dining)</text><text class="terminal-4242046734-r5" x="1183.4" y="825.2" textLength="12.2" clip-path="url(#terminal-4242046734-line-33)">▎</text><text class="terminal-4242046734-r1" x="1220" y="825.2" textLength="12.2" clip-path="url(#terminal-4242046734-line-33)">
</text><text class="terminal-4242046734-r4" x="12.2" y="849.6" textLength="12.2" clip-path="url(#terminal-4242046734-line-34)">▊</text><text class="terminal-4242046734-r5" x="24.4" y="849.6" textLength="1159" clip-path="url(#terminal-4242046734-line-34)">▁▁▁▁▁▁▁▁▁▁▁▁▁▁▁▁▁▁▁▁▁▁▁▁▁▁▁▁▁▁▁▁▁▁▁▁▁▁▁▁▁▁▁▁▁▁▁▁▁▁▁▁▁▁▁▁▁▁▁▁▁▁▁▁▁▁▁▁▁▁▁▁▁▁▁▁▁▁▁▁▁▁▁▁▁▁▁▁▁▁▁▁▁▁▁</text><text class="terminal-4242046734-r5" x="1183.4" y="849.6" textLength="12.2" clip-path="url(#terminal-4242046734-line-34)">▎</text><text class="terminal-4242046734-r1" x="1220" y="849.6" textLength="12.2" clip-path="url(#terminal-4242046734-line-34)">
</text><text class="terminal-4242046734-r10" x="0" y="874" textLength="36.6" clip-path="url(#terminal-4242046734-line-35)">&#160;/&#160;</text><text class="terminal-4242046734-r7" x="36.6" y="874" textLength="85.4" clip-path="url(#terminal-4242046734-line-35)">Search&#160;</text><text class="terminal-4242046734-r10" x="122" y="874" textLength="36.6" clip-path="url(#terminal-4242046734-line-35)">&#160;?&#160;</text><text class="terminal-4242046734-r7" x="158.6" y="874" textLength="61" clip-path="url(#terminal-4242046734-line-35)">Help&#160;</text><text class="terminal-4242046734-r10" x="219.6" y="874" textLength="36.6" clip-path="url(#terminal-4242046734-line-35)">&#160;r&#160;</text><text class="terminal-4242046734-r7" x="256.2" y="874" textLength="85.4" clip-path="url(#terminal-4242046734-line-35)">Review&#160;</text><text class="terminal-4242046734-r10" x="341.6" y="874" textLength="36.6" clip-path="url(#terminal-4242046734-line-35)">&#160;q&#160;</text><text class="terminal-4242046734-r7" x="378.2" y="874" textLength="61" clip-path="url(#terminal-4242046734-line-35)">Quit&#160;</text><text class="terminal-4242046734-r11" x="1073.6" y="874" textLength="12.2" clip-path="url(#terminal-4242046734-line-35)">▏</text><text class="terminal-4242046734-r10" x="1085.8" y="874" textLength="24.4" clip-path="url(#terminal-4242046734-line-35)">^p</text><text class="terminal-4242046734-r7" x="1110.2" y="874" textLength="97.6" clip-path="url(#terminal-4242046734-line-35)">&#160;palette</text>
    </g>
    </g>
</svg>
